<svg width="507" height="507" viewBox="0 0 507 507" fill="none" xmlns="http://www.w3.org/2000/svg">
<circle cx="253.5" cy="253.5" r="253.5" fill="#1E2634"/>
<path d="M391.168 183.411C413.352 183.411 431.336 165.41 431.336 143.205C431.336 121.001 413.352 103 391.168 103C368.984 103 351 121.001 351 143.205C351 165.41 368.984 183.411 391.168 183.411Z" fill="#F57474"/>
<path opacity="0.2" d="M387.217 120.137C389.763 120.137 391.827 118.071 391.827 115.523C391.827 112.975 389.763 110.909 387.217 110.909C384.671 110.909 382.608 112.975 382.608 115.523C382.608 118.071 384.671 120.137 387.217 120.137Z" fill="black"/>
<path opacity="0.2" d="M395.119 166.274C397.665 166.274 399.729 164.208 399.729 161.66C399.729 159.112 397.665 157.047 395.119 157.047C392.573 157.047 390.51 159.112 390.51 161.66C390.51 164.208 392.573 166.274 395.119 166.274Z" fill="black"/>
<path opacity="0.2" d="M412.899 139.251C414.717 139.251 416.191 137.775 416.191 135.955C416.191 134.135 414.717 132.66 412.899 132.66C411.08 132.66 409.606 134.135 409.606 135.955C409.606 137.775 411.08 139.251 412.899 139.251Z" fill="black"/>
<path opacity="0.2" d="M375.364 157.047C381.183 157.047 385.9 152.325 385.9 146.501C385.9 140.677 381.183 135.955 375.364 135.955C369.545 135.955 364.828 140.677 364.828 146.501C364.828 152.325 369.545 157.047 375.364 157.047Z" fill="black"/>
<path opacity="0.8" d="M315.167 262.503L335.175 239.058L355.182 215.613L366.477 202.378C367.102 201.646 366.138 200.503 365.513 201.236L345.505 224.68L325.497 248.125L314.202 261.36C313.578 262.092 314.542 263.235 315.167 262.503V262.503Z" fill="url(#paint0_linear)"/>
<path opacity="0.8" d="M313.167 138.503L333.175 115.058L353.182 91.613L364.477 78.378C365.102 77.6458 364.138 76.5033 363.513 77.2356L343.505 100.68L323.497 124.125L312.202 137.36C311.578 138.092 312.542 139.235 313.167 138.503V138.503Z" fill="url(#paint1_linear)"/>
<path d="M470.165 175.336C471.913 175.336 473.33 173.917 473.33 172.168C473.33 170.418 471.913 169 470.165 169C468.417 169 467 170.418 467 172.168C467 173.917 468.417 175.336 470.165 175.336Z" fill="#E6E6E6"/>
<path d="M272.165 172.336C273.913 172.336 275.33 170.917 275.33 169.168C275.33 167.418 273.913 166 272.165 166C270.417 166 269 167.418 269 169.168C269 170.917 270.417 172.336 272.165 172.336Z" fill="#E6E6E6"/>
<path d="M430.213 206.011L428.633 207.582L427.064 206L426.011 207.047L427.58 208.628L426 210.199L427.046 211.253L428.626 209.683L430.194 211.264L431.248 210.217L429.679 208.636L431.258 207.065L430.213 206.011Z" fill="#E6E6E6"/>
<path d="M287.213 217.011L285.633 218.582L284.064 217L283.011 218.047L284.58 219.628L283 221.199L284.046 222.253L285.626 220.683L287.194 222.264L288.248 221.217L286.679 219.636L288.258 218.065L287.213 217.011Z" fill="#E6E6E6"/>
<path d="M395.264 243.472L393.684 245.043L392.115 243.461L391.062 244.509L392.631 246.09L391.051 247.66L392.097 248.714L393.677 247.144L395.245 248.725L396.299 247.678L394.73 246.097L396.309 244.527L395.264 243.472Z" fill="#E6E6E6"/>
<path d="M311.213 115.011L309.633 116.582L308.064 115L307.011 116.047L308.58 117.628L307 119.199L308.046 120.253L309.626 118.683L311.194 120.264L312.248 119.217L310.679 117.636L312.258 116.065L311.213 115.011Z" fill="#E6E6E6"/>
<path d="M149.136 307.085L146.833 317.076C146.833 317.076 147.601 340.134 141.458 337.828C135.315 335.522 136.851 315.539 136.851 315.539L142.226 305.548L149.136 307.085Z" fill="#FFB8B8"/>
<path d="M114.966 197.562C123.448 197.562 130.324 190.68 130.324 182.191C130.324 173.701 123.448 166.819 114.966 166.819C106.485 166.819 99.609 173.701 99.609 182.191C99.609 190.68 106.485 197.562 114.966 197.562Z" fill="#FFB8B8"/>
<path d="M103.064 186.418L101.529 208.707L120.725 211.012C120.725 211.012 120.725 192.566 122.261 190.261C123.797 187.955 103.064 186.418 103.064 186.418Z" fill="#FFB8B8"/>
<path d="M145.637 215.444L120.762 204.926C120.762 204.926 108.875 195.762 101.914 202.551L98.7891 207.031C98.7891 207.031 71.1553 217.815 71.1627 226.269L81.9498 268.532C81.9498 268.532 75.8277 292.363 85.0434 293.892L134.959 298.46C134.959 298.46 141.862 290 135.71 279.245L137.991 253.88L145.637 215.444Z" fill="#E6E6E6"/>
<path d="M128.744 216.227L145.637 215.444C145.637 215.444 151.013 216.977 154.865 231.576C158.717 246.176 159.506 270.001 159.506 270.001L150.329 313.05L138.81 311.523L143.381 270.015L135.678 242.353L128.744 216.227Z" fill="#E6E6E6"/>
<path d="M80.3724 220.881L72.046 223.485C72.046 223.485 65.0265 233.961 65.0312 239.341C65.0359 244.721 62 285.458 62 285.458L81.9935 318.49L88.1223 302.344L75.8183 281.603L85.7784 256.231L80.3724 220.881Z" fill="#E6E6E6"/>
<path d="M137.235 296.709L82.0273 291.847C82.0273 291.847 76.573 326.684 77.3408 340.518C78.1087 354.353 78.8766 375.873 78.8766 375.873L72.7336 469.64L96.5375 466.565L99.609 388.939L109.591 346.667L121.109 400.467L128.788 469.64L149.52 467.334L142.61 383.559C142.61 383.559 148.753 308.238 137.235 296.709Z" fill="#BBAFAF"/>
<path d="M144.913 463.491L151.824 465.797C151.824 465.797 166.414 461.954 162.574 471.945C158.735 481.937 147.985 480.4 147.985 480.4C147.985 480.4 134.931 490.391 129.556 482.706L132.627 466.565L144.913 463.491Z" fill="#4B4448"/>
<path d="M88.8588 463.491L95.7696 465.797C95.7696 465.797 110.359 461.954 106.52 471.945C102.68 481.937 91.9303 480.4 91.9303 480.4C91.9303 480.4 78.8766 490.391 73.5015 482.706L76.5729 466.565L88.8588 463.491Z" fill="#4B4448"/>
<path d="M103.064 195.641C103.064 195.641 86.9392 184.112 95.3857 170.278C101.245 160.68 113.388 161.44 120.275 162.805C122.131 163.148 123.876 163.938 125.359 165.105C126.842 166.273 128.018 167.785 128.788 169.509C129.94 172.199 129.94 174.889 125.333 174.889C116.118 174.889 120.725 181.806 120.725 181.806C120.725 181.806 114.582 183.344 116.118 188.724C117.654 194.104 103.064 195.641 103.064 195.641Z" fill="#7C5959"/>
<defs>
<linearGradient id="paint0_linear" x1="314" y1="231.869" x2="366.68" y2="231.869" gradientUnits="userSpaceOnUse">
<stop stop-color="white"/>
<stop offset="1" stop-color="white" stop-opacity="0.3"/>
</linearGradient>
<linearGradient id="paint1_linear" x1="38544.9" y1="13497.2" x2="43118" y2="13497.2" gradientUnits="userSpaceOnUse">
<stop stop-color="white"/>
<stop offset="1" stop-color="white" stop-opacity="0.3"/>
</linearGradient>
</defs>
</svg>
