<svg width="80" height="80" viewBox="0 0 80 80" fill="none" xmlns="http://www.w3.org/2000/svg">
<circle cx="40" cy="40" r="40" fill="#1E2634"/>
<path d="M43.272 54.664C45.432 54.664 47.256 54.472 48.744 54.088C50.232 53.704 51.48 53.2 52.488 52.576L54.648 60.424C53.688 61 52.128 61.576 49.968 62.152C47.856 62.728 45.24 63.016 42.12 63.016C38.568 63.016 35.304 62.464 32.328 61.36C29.352 60.256 26.808 58.696 24.696 56.68C22.584 54.616 20.928 52.144 19.728 49.264C18.576 46.336 18 43.072 18 39.472C18 35.968 18.552 32.776 19.656 29.896C20.808 26.968 22.416 24.496 24.48 22.48C26.592 20.416 29.136 18.832 32.112 17.728C35.136 16.576 38.52 16 42.264 16C45.432 16 48 16.312 49.968 16.936C51.984 17.512 53.568 18.112 54.72 18.736L52.272 26.728C51.168 26.104 49.848 25.552 48.312 25.072C46.824 24.592 45.168 24.352 43.344 24.352C41.424 24.352 39.624 24.64 37.944 25.216C36.264 25.744 34.8 26.608 33.552 27.808C32.304 29.008 31.32 30.568 30.6 32.488C29.88 34.36 29.52 36.664 29.52 39.4C29.52 41.944 29.856 44.176 30.528 46.096C31.248 48.016 32.232 49.624 33.48 50.92C34.728 52.168 36.168 53.104 37.8 53.728C39.48 54.352 41.304 54.664 43.272 54.664Z" fill="white"/>
<mask id="mask0" mask-type="alpha" maskUnits="userSpaceOnUse" x="18" y="16" width="37" height="48">
<path d="M43.272 54.664C45.432 54.664 47.256 54.472 48.744 54.088C50.232 53.704 51.48 53.2 52.488 52.576L54.648 60.424C53.688 61 52.128 61.576 49.968 62.152C47.856 62.728 45.24 63.016 42.12 63.016C38.568 63.016 35.304 62.464 32.328 61.36C29.352 60.256 26.808 58.696 24.696 56.68C22.584 54.616 20.928 52.144 19.728 49.264C18.576 46.336 18 43.072 18 39.472C18 35.968 18.552 32.776 19.656 29.896C20.808 26.968 22.416 24.496 24.48 22.48C26.592 20.416 29.136 18.832 32.112 17.728C35.136 16.576 38.52 16 42.264 16C45.432 16 48 16.312 49.968 16.936C51.984 17.512 53.568 18.112 54.72 18.736L52.272 26.728C51.168 26.104 49.848 25.552 48.312 25.072C46.824 24.592 45.168 24.352 43.344 24.352C41.424 24.352 39.624 24.64 37.944 25.216C36.264 25.744 34.8 26.608 33.552 27.808C32.304 29.008 31.32 30.568 30.6 32.488C29.88 34.36 29.52 36.664 29.52 39.4C29.52 41.944 29.856 44.176 30.528 46.096C31.248 48.016 32.232 49.624 33.48 50.92C34.728 52.168 36.168 53.104 37.8 53.728C39.48 54.352 41.304 54.664 43.272 54.664Z" fill="white"/>
</mask>
<g mask="url(#mask0)">
<path d="M22 45C22 36.5 22.8 17.3 -8 0.5L-18 30L12.5 104.5L54 76.5C53 60.5 48.2068 53.2666 38.5 57C32 59.5 22 53.5 22 45Z" fill="url(#paint0_linear)" fill-opacity="0.75"/>
</g>
<defs>
<linearGradient id="paint0_linear" x1="18" y1="0.5" x2="18" y2="104.5" gradientUnits="userSpaceOnUse">
<stop stop-color="#FFB682"/>
<stop offset="1" stop-color="#FF8D86"/>
</linearGradient>
</defs>
</svg>
